<svg width="1013" height="297" viewBox="0 0 1013 297" fill="none" xmlns="http://www.w3.org/2000/svg">
<mask id="path-1-inside-1_522_130" fill="white">
<path fill-rule="evenodd" clip-rule="evenodd" d="M50 0C22.3858 0 0 22.3858 0 50V209C0 214.912 2.05229 220.345 5.48334 224.625C6.01929 225.853 6.66457 227.064 7.42453 228.249L43.9576 285.198C53.795 300.533 76.205 300.533 86.0424 285.198L118.886 234H963C990.614 234 1013 211.614 1013 184V50C1013 22.3858 990.614 0 963 0H50Z"/>
</mask>
<path fill-rule="evenodd" clip-rule="evenodd" d="M50 0C22.3858 0 0 22.3858 0 50V209C0 214.912 2.05229 220.345 5.48334 224.625C6.01929 225.853 6.66457 227.064 7.42453 228.249L43.9576 285.198C53.795 300.533 76.205 300.533 86.0424 285.198L118.886 234H963C990.614 234 1013 211.614 1013 184V50C1013 22.3858 990.614 0 963 0H50Z" fill="white" fill-opacity="0.5"/>
<path d="M5.48334 224.625L8.23281 223.425L8.07336 223.06L7.82407 222.749L5.48334 224.625ZM7.42453 228.249L4.89944 229.869L4.89944 229.869L7.42453 228.249ZM43.9576 285.198L41.4325 286.818L41.4325 286.818L43.9576 285.198ZM86.0424 285.198L83.5173 283.578L83.5173 283.578L86.0424 285.198ZM118.886 234V231H117.246L116.361 232.38L118.886 234ZM3 50C3 24.0426 24.0426 3 50 3V-3C20.7289 -3 -3 20.7289 -3 50H3ZM3 209V50H-3V209H3ZM7.82407 222.749C4.8043 218.982 3 214.206 3 209H-3C-3 215.619 -0.699708 221.709 3.14261 226.502L7.82407 222.749ZM9.94963 226.629C9.27489 225.577 8.70478 224.506 8.23281 223.425L2.73387 225.825C3.3338 227.2 4.05426 228.551 4.89944 229.869L9.94963 226.629ZM46.4826 283.578L9.94962 226.629L4.89944 229.869L41.4325 286.818L46.4826 283.578ZM83.5173 283.578C74.8604 297.073 55.1396 297.073 46.4826 283.578L41.4325 286.818C52.4504 303.993 77.5496 303.993 88.5675 286.818L83.5173 283.578ZM116.361 232.38L83.5173 283.578L88.5675 286.818L121.411 235.62L116.361 232.38ZM963 231H118.886V237H963V231ZM1010 184C1010 209.957 988.957 231 963 231V237C992.271 237 1016 213.271 1016 184H1010ZM1010 50V184H1016V50H1010ZM963 3C988.957 3 1010 24.0426 1010 50H1016C1016 20.7289 992.271 -3 963 -3V3ZM50 3H963V-3H50V3Z" fill="#CECECE" mask="url(#path-1-inside-1_522_130)"/>
</svg>
