<svg width="1013" height="297" viewBox="0 0 1013 297" fill="none" xmlns="http://www.w3.org/2000/svg">
<mask id="path-1-inside-1_523_131" fill="white">
<path fill-rule="evenodd" clip-rule="evenodd" d="M50 0C22.3858 0 0 22.3858 0 50V184C0 211.614 22.3858 234 50 234H894.114L926.958 285.198C936.795 300.533 959.205 300.533 969.042 285.198L1005.58 228.249C1006.34 227.064 1006.98 225.853 1007.52 224.625C1010.95 220.345 1013 214.912 1013 209V50C1013 22.3858 990.614 0 963 0H50Z"/>
</mask>
<path fill-rule="evenodd" clip-rule="evenodd" d="M50 0C22.3858 0 0 22.3858 0 50V184C0 211.614 22.3858 234 50 234H894.114L926.958 285.198C936.795 300.533 959.205 300.533 969.042 285.198L1005.58 228.249C1006.34 227.064 1006.98 225.853 1007.52 224.625C1010.95 220.345 1013 214.912 1013 209V50C1013 22.3858 990.614 0 963 0H50Z" fill="white" fill-opacity="0.5"/>
<path d="M894.114 234L896.639 232.38L895.754 231H894.114V234ZM926.958 285.198L929.483 283.578L929.483 283.578L926.958 285.198ZM969.042 285.198L966.517 283.578L966.517 283.578L969.042 285.198ZM1005.58 228.249L1008.1 229.869L1008.1 229.869L1005.58 228.249ZM1007.52 224.625L1005.18 222.749L1004.93 223.06L1004.77 223.425L1007.52 224.625ZM3 50C3 24.0426 24.0426 3 50 3V-3C20.7289 -3 -3 20.7289 -3 50H3ZM3 184V50H-3V184H3ZM50 231C24.0426 231 3 209.957 3 184H-3C-3 213.271 20.7289 237 50 237V231ZM894.114 231H50V237H894.114V231ZM929.483 283.578L896.639 232.38L891.589 235.62L924.432 286.818L929.483 283.578ZM966.517 283.578C957.86 297.073 938.14 297.073 929.483 283.578L924.432 286.818C935.45 303.993 960.55 303.993 971.568 286.818L966.517 283.578ZM1003.05 226.629L966.517 283.578L971.568 286.818L1008.1 229.869L1003.05 226.629ZM1004.77 223.425C1004.3 224.506 1003.73 225.577 1003.05 226.629L1008.1 229.869C1008.95 228.551 1009.67 227.2 1010.27 225.825L1004.77 223.425ZM1010 209C1010 214.206 1008.2 218.982 1005.18 222.749L1009.86 226.502C1013.7 221.709 1016 215.619 1016 209H1010ZM1010 50V209H1016V50H1010ZM963 3C988.957 3 1010 24.0426 1010 50H1016C1016 20.7289 992.271 -3 963 -3V3ZM50 3H963V-3H50V3Z" fill="#CECECE" mask="url(#path-1-inside-1_523_131)"/>
</svg>
