<svg width="36" height="36" viewBox="0 0 36 36" fill="none" xmlns="http://www.w3.org/2000/svg">
<circle cx="18" cy="18" r="18" fill="url(#paint0_linear_352_105)"/>
<path d="M16.2734 22.7012C16.3027 18.8633 17.4453 17.6914 19.3789 16.4902C20.6094 15.7285 21.5469 14.6738 21.5469 13.1211C21.5469 11.2754 20.1406 10.1328 18.3828 10.1328C16.8008 10.1328 15.2773 11.0996 15.1309 13.2676H11.9668C12.084 9.54688 14.8965 7.49609 18.3828 7.49609C22.1914 7.49609 24.7402 9.78125 24.7402 13.1211C24.7402 15.4648 23.627 17.0469 21.752 18.1895C19.9941 19.2441 19.3203 20.3281 19.2617 22.7012V22.877H16.2734V22.7012ZM17.8848 29.2051C16.7422 29.2051 15.7754 28.2676 15.8047 27.125C15.7754 25.9824 16.7422 25.0449 17.8848 25.0449C18.998 25.0449 19.9648 25.9824 19.9648 27.125C19.9648 28.2676 18.998 29.2051 17.8848 29.2051Z" fill="white"/>
<defs>
<linearGradient id="paint0_linear_352_105" x1="18" y1="36" x2="18" y2="0" gradientUnits="userSpaceOnUse">
<stop/>
<stop offset="1" stop-color="#414141"/>
</linearGradient>
</defs>
</svg>
