<svg width="260" height="156" viewBox="0 0 260 156" fill="none" xmlns="http://www.w3.org/2000/svg">
<path d="M64.2617 28.7451C64.4923 31.9047 63.3434 34.2987 60.8152 35.927C58.3313 37.5039 54.1557 38.6508 48.2883 39.3676C48.6475 41.6515 48.9598 44.6126 49.2252 48.251C49.5954 53.3255 49.6051 57.4156 49.2541 60.5214C48.9476 63.5758 48.1782 65.8939 46.9461 67.4758C45.7104 69.0098 43.8958 69.8641 41.5021 70.0387C39.1563 70.2098 37.3052 69.5749 35.9488 68.1337C34.5923 66.6926 33.5647 64.4815 32.8659 61.5005C32.1672 58.5194 31.6362 54.5395 31.2729 49.5607C31.0284 46.2096 30.8837 43.2363 30.8387 40.6407C26.8513 40.7391 23.6141 40.5662 21.1272 40.122C18.6847 39.6264 16.8418 38.7742 15.5985 37.5655C14.3553 36.3567 13.6533 34.6513 13.4927 32.4491C13.2971 29.7683 14.053 27.5955 15.7604 25.9309C17.4678 24.2662 20.118 22.99 23.7109 22.1022C27.3038 21.2144 32.0444 20.5557 37.9328 20.1261C43.869 19.693 48.7029 19.6532 52.4345 20.0066C56.1661 20.36 59.0213 21.2345 61.0001 22.6303C62.979 24.026 64.0662 26.0643 64.2617 28.7451ZM125.427 64.0601C121.885 64.3185 118.698 63.8532 115.868 62.6639C113.038 61.4747 110.766 59.6913 109.053 57.3137C107.384 54.8847 106.434 52.0904 106.203 48.9308C105.976 45.8191 106.509 42.8926 107.801 40.1513C109.141 37.4065 111.093 35.1464 113.659 33.371C116.225 31.5957 119.207 30.584 122.606 30.336C125.67 30.1125 128.42 30.5375 130.856 31.611C133.293 32.6846 135.209 34.2052 136.604 36.1729C137.995 38.0928 138.771 40.1538 138.932 42.3559C139.194 45.9464 138.021 48.6789 135.415 50.5535C132.853 52.3768 129.705 53.4246 125.971 53.6971C123.481 53.8787 121.352 53.7212 119.583 53.2246C121.191 55.4656 123.646 56.4656 126.949 56.2246C128.29 56.1268 129.713 55.8544 131.221 55.4076C131.785 55.222 132.33 55.1101 132.857 55.0716C133.91 54.9948 134.767 55.197 135.428 55.6782C136.136 56.1559 136.524 56.8495 136.59 57.7591C136.699 59.2432 135.883 60.6021 134.144 61.8359C132.402 63.0218 129.496 63.7632 125.427 64.0601ZM119.16 44.4482C119.639 45.0869 120.25 45.5477 120.993 45.8304C121.78 46.0618 122.628 46.1443 123.538 46.0779C124.591 46.0011 125.483 45.6953 126.214 45.1607C126.993 44.6226 127.354 43.9706 127.299 43.2046C127.236 42.3429 126.823 41.6271 126.059 41.0571C125.343 40.4837 124.339 40.2441 123.047 40.3384C121.754 40.4327 120.755 40.9147 120.048 41.7844C119.386 42.6028 119.09 43.4907 119.16 44.4482Z" fill="url(#paint0_linear_784_147)"/>
<path d="M77.1703 67.5808C74.8246 67.7519 72.963 66.9733 71.5855 65.245C70.2081 63.5166 69.1421 60.7789 68.3875 57.0319C67.6807 53.2814 67.0828 48.0551 66.5938 41.3529C66.1852 35.7518 66.0092 31.3609 66.0659 28.1804C66.1705 24.9963 66.7309 22.4528 67.7471 20.5498C68.7599 18.5989 70.487 17.5344 72.9285 17.3563C75.0349 17.2026 76.6636 17.7576 77.8146 19.0212C78.9656 20.2848 79.7581 21.9114 80.192 23.9011C80.6259 25.8908 80.9529 28.3937 81.173 31.4097L81.4087 34.6411C82.3312 34.0925 83.1446 33.6963 83.8487 33.4524C84.6007 33.205 85.7187 33.0272 87.2028 32.9189C90.4581 32.6814 93.3198 33.3149 95.7878 34.8193C98.2523 36.2758 100.184 38.3487 101.584 41.038C103.031 43.7238 103.879 46.7662 104.127 50.1652C104.448 54.5695 104.235 58.2427 103.487 61.185C102.783 64.0758 101.067 65.6208 98.3383 65.8199C96.4234 65.9596 94.9558 65.6335 93.9354 64.8416C92.963 64.0463 92.279 62.9171 91.8835 61.454C91.5359 59.9874 91.2677 57.9615 91.0791 55.3764C90.8731 52.5519 90.403 50.3964 89.6689 48.9099C88.9826 47.4198 87.8975 46.729 86.4134 46.8372C84.9294 46.9455 83.9099 47.814 83.3549 49.4427C82.8443 51.02 82.6664 53.1988 82.8211 55.9789C82.9618 58.5675 82.9445 60.6382 82.769 62.1911C82.6414 63.7405 82.132 65.0049 81.2409 65.9844C80.3942 66.9124 79.0374 67.4446 77.1703 67.5808Z" fill="url(#paint1_linear_784_147)"/>
<path d="M27.27 145C21.21 145 16.08 143.77 11.88 141.31C7.68 138.79 4.92 135.04 3.6 130.06C3.06 128.02 2.7 125.53 2.52 122.59C2.34 119.65 2.25 115.9 2.25 111.34C2.25 102.4 3.21 95.29 5.13 90.01C7.11 84.67 11.01 82 16.83 82C20.43 82 23.25 83.26 25.29 85.78C27.39 88.3 28.44 91.42 28.44 95.14C28.44 99.1 28.11 103.33 27.45 107.83C26.79 112.33 25.86 117.79 24.66 124.21C28.38 123.01 32.46 122.41 36.9 122.41C41.52 122.41 45.36 123.25 48.42 124.93C51.54 126.61 53.1 129.34 53.1 133.12C53.1 136.78 51.9 139.48 49.5 141.22C47.1 142.96 44.19 144.04 40.77 144.46C37.35 144.82 32.85 145 27.27 145Z" fill="url(#paint2_linear_784_147)"/>
<path d="M63.6687 101.35C60.7287 101.35 58.2387 100.3 56.1987 98.2C54.1587 96.04 53.1387 93.43 53.1387 90.37C53.1387 87.37 54.1587 84.82 56.1987 82.72C58.2387 80.56 60.7287 79.48 63.6687 79.48C66.5487 79.48 69.0087 80.56 71.0487 82.72C73.1487 84.82 74.1987 87.37 74.1987 90.37C74.1987 93.43 73.1487 96.04 71.0487 98.2C69.0087 100.3 66.5487 101.35 63.6687 101.35ZM63.6687 145C61.2087 145 59.3787 144.31 58.1787 142.93C57.0387 141.49 56.2587 139.36 55.8387 136.54C55.4787 133.66 55.2987 129.58 55.2987 124.3C55.2987 119.86 55.5087 116.35 55.9287 113.77C56.4087 111.19 57.2487 109.27 58.4487 108.01C59.6487 106.75 61.3887 106.12 63.6687 106.12C66.1287 106.12 67.9287 106.84 69.0687 108.28C70.2687 109.66 71.0487 111.79 71.4087 114.67C71.8287 117.49 72.0387 121.54 72.0387 126.82C72.0387 131.26 71.7987 134.77 71.3187 137.35C70.8987 139.93 70.0887 141.85 68.8887 143.11C67.6887 144.37 65.9487 145 63.6687 145ZM122.635 106.03C122.635 109.15 121.165 111.28 118.225 112.42C115.285 113.5 111.265 114.07 106.165 114.13C106.105 115.63 106.075 118.06 106.075 121.42C106.075 124.84 106.315 127.27 106.795 128.71C107.095 129.73 107.545 130.39 108.145 130.69C108.805 130.99 109.765 131.2 111.025 131.32C111.445 131.38 111.895 131.47 112.375 131.59C112.915 131.65 113.515 131.74 114.175 131.86C115.555 132.16 116.635 132.91 117.415 134.11C118.195 135.25 118.585 136.72 118.585 138.52C118.585 140.56 117.535 142.15 115.435 143.29C113.335 144.43 110.455 145 106.795 145C103.435 145 100.225 144.04 97.1648 142.12C94.1048 140.14 92.0048 137.5 90.8648 134.2C89.6648 130.66 89.0648 123.97 89.0648 114.13C84.8648 114.01 81.4748 113.47 78.8948 112.51C76.3748 111.49 75.1148 109.69 75.1148 107.11C75.1148 103.87 76.3148 101.71 78.7148 100.63C81.1148 99.49 84.5648 98.89 89.0648 98.83C89.2448 94.03 89.9948 90.04 91.3148 86.86C92.6348 83.62 95.0048 82 98.4248 82C101.905 82 104.155 83.5 105.175 86.5C106.255 89.5 106.735 93.61 106.615 98.83C112.075 98.77 116.095 99.19 118.675 100.09C121.315 100.99 122.635 102.97 122.635 106.03ZM171.941 106.03C171.941 109.15 170.471 111.28 167.531 112.42C164.591 113.5 160.571 114.07 155.471 114.13C155.411 115.63 155.381 118.06 155.381 121.42C155.381 124.84 155.621 127.27 156.101 128.71C156.401 129.73 156.851 130.39 157.451 130.69C158.111 130.99 159.071 131.2 160.331 131.32C160.751 131.38 161.201 131.47 161.681 131.59C162.221 131.65 162.821 131.74 163.481 131.86C164.861 132.16 165.941 132.91 166.721 134.11C167.501 135.25 167.891 136.72 167.891 138.52C167.891 140.56 166.841 142.15 164.741 143.29C162.641 144.43 159.761 145 156.101 145C152.741 145 149.531 144.04 146.471 142.12C143.411 140.14 141.311 137.5 140.171 134.2C138.971 130.66 138.371 123.97 138.371 114.13C134.171 114.01 130.781 113.47 128.201 112.51C125.681 111.49 124.421 109.69 124.421 107.11C124.421 103.87 125.621 101.71 128.021 100.63C130.421 99.49 133.871 98.89 138.371 98.83C138.551 94.03 139.301 90.04 140.621 86.86C141.941 83.62 144.311 82 147.731 82C151.211 82 153.461 83.5 154.481 86.5C155.561 89.5 156.041 93.61 155.921 98.83C161.381 98.77 165.401 99.19 167.981 100.09C170.621 100.99 171.941 102.97 171.941 106.03ZM194.557 145C190.117 145 186.187 144.13 182.767 142.39C179.347 140.65 176.677 138.22 174.757 135.1C172.897 131.92 171.967 128.35 171.967 124.39C171.967 120.49 172.897 116.89 174.757 113.59C176.677 110.29 179.317 107.65 182.677 105.67C186.037 103.69 189.847 102.7 194.107 102.7C197.947 102.7 201.337 103.48 204.277 105.04C207.217 106.6 209.467 108.67 211.027 111.25C212.587 113.77 213.367 116.41 213.367 119.17C213.367 123.67 211.657 126.97 208.237 129.07C204.877 131.11 200.857 132.13 196.177 132.13C193.057 132.13 190.417 131.74 188.257 130.96C190.057 133.9 193.027 135.37 197.167 135.37C198.847 135.37 200.647 135.16 202.567 134.74C203.287 134.56 203.977 134.47 204.637 134.47C205.957 134.47 207.007 134.8 207.787 135.46C208.627 136.12 209.047 137.02 209.047 138.16C209.047 140.02 207.907 141.64 205.627 143.02C203.347 144.34 199.657 145 194.557 145ZM188.527 119.98C189.067 120.82 189.787 121.45 190.687 121.87C191.647 122.23 192.697 122.41 193.837 122.41C195.157 122.41 196.297 122.11 197.257 121.51C198.277 120.91 198.787 120.13 198.787 119.17C198.787 118.09 198.337 117.16 197.437 116.38C196.597 115.6 195.367 115.21 193.747 115.21C192.127 115.21 190.837 115.72 189.877 116.74C188.977 117.7 188.527 118.78 188.527 119.98ZM226.597 145C222.757 145 220.177 142.75 218.857 138.25C217.597 133.75 216.967 127.54 216.967 119.62C216.967 116.02 217.117 113.02 217.417 110.62C217.777 108.16 218.587 106.09 219.847 104.41C221.167 102.67 223.177 101.8 225.877 101.8C227.557 101.8 229.027 102.19 230.287 102.97C231.607 103.75 232.447 104.86 232.807 106.3C234.127 105.1 235.837 104.2 237.937 103.6C240.037 103 242.287 102.7 244.687 102.7C246.607 102.7 248.557 103.18 250.537 104.14C252.577 105.1 254.257 106.42 255.577 108.1C256.957 109.72 257.647 111.49 257.647 113.41C257.647 115.33 256.957 117.04 255.577 118.54C254.257 119.98 252.487 120.7 250.267 120.7C249.547 120.7 248.857 120.61 248.197 120.43C247.597 120.25 247.057 120.07 246.577 119.89C245.377 119.41 244.417 119.17 243.697 119.17C241.357 119.17 239.287 120.1 237.487 121.96C235.747 123.76 234.877 126.1 234.877 128.98C234.877 132.16 234.757 134.8 234.517 136.9C234.277 139 233.557 140.89 232.357 142.57C231.157 144.19 229.237 145 226.597 145Z" fill="url(#paint3_linear_784_147)"/>
<circle cx="174.404" cy="56.8942" r="15.1822" transform="rotate(11.2042 174.404 56.8942)" stroke="#FF5881" stroke-width="7"/>
<circle cx="224.924" cy="66.9015" r="15.1822" transform="rotate(11.2042 224.924 66.9015)" stroke="#FF5881" stroke-width="7"/>
<path d="M189.464 61.4213C193.444 58.3253 202.978 54.7759 209.276 65.3457" stroke="#FF5881" stroke-width="7"/>
<defs>
<linearGradient id="paint0_linear_784_147" x1="73.8303" y1="4.65704" x2="79.0694" y2="76.4662" gradientUnits="userSpaceOnUse">
<stop stop-color="#FF97AA"/>
<stop offset="1" stop-color="#FFBECA"/>
</linearGradient>
<linearGradient id="paint1_linear_784_147" x1="73.8303" y1="4.65704" x2="79.0694" y2="76.4662" gradientUnits="userSpaceOnUse">
<stop stop-color="#FF5881"/>
<stop offset="1" stop-color="#FF9CB5"/>
</linearGradient>
<linearGradient id="paint2_linear_784_147" x1="130" y1="66" x2="130" y2="156" gradientUnits="userSpaceOnUse">
<stop stop-color="#FF5881"/>
<stop offset="1" stop-color="#FF97B1"/>
</linearGradient>
<linearGradient id="paint3_linear_784_147" x1="130" y1="66" x2="130" y2="156" gradientUnits="userSpaceOnUse">
<stop stop-color="#FF97AA"/>
<stop offset="1" stop-color="#FFC8D2"/>
</linearGradient>
</defs>
</svg>
